<svg xmlns="http://www.w3.org/2000/svg" width="1280" height="720" viewBox="0 0 1280 720">
  <defs>
    <linearGradient id="bg" x1="0" y1="0" x2="1" y2="1">
      <stop offset="0" stop-color="#0b1220"/>
      <stop offset="1" stop-color="#121a2d"/>
    </linearGradient>
    <linearGradient id="accent" x1="0" y1="0" x2="1" y2="1">
      <stop offset="0" stop-color="#3b82f6"/>
      <stop offset="1" stop-color="#a855f7"/>
    </linearGradient>
  </defs>
  <rect width="1280" height="720" fill="url(#bg)"/>
  <rect x="140" y="150" width="1000" height="420" rx="28" fill="rgba(255,255,255,0.04)" stroke="rgba(255,255,255,0.10)"/>
  <g transform="translate(230 230)">
    <rect x="0" y="0" width="520" height="66" rx="18" fill="rgba(255,255,255,0.05)"/>
    <rect x="0" y="92" width="700" height="46" rx="14" fill="rgba(255,255,255,0.05)"/>
    <rect x="0" y="152" width="620" height="46" rx="14" fill="rgba(255,255,255,0.05)"/>
    <rect x="0" y="212" width="760" height="46" rx="14" fill="rgba(255,255,255,0.05)"/>
  </g>
  <g transform="translate(880 250)">
    <rect x="0" y="0" width="260" height="220" rx="32" fill="url(#accent)" opacity="0.92"/>
    <circle cx="80" cy="90" r="16" fill="rgba(3,7,18,0.55)"/>
    <circle cx="180" cy="90" r="16" fill="rgba(3,7,18,0.55)"/>
    <path d="M80 150c30 28 70 28 100 0" fill="none" stroke="rgba(3,7,18,0.55)" stroke-width="14" stroke-linecap="round"/>
  </g>
  <text x="120" y="592" fill="rgba(255,255,255,0.82)" font-family="Inter, system-ui, -apple-system, Segoe UI, Roboto, Arial" font-size="34" font-weight="700">Amibo Chatbot</text>
  <text x="120" y="630" fill="rgba(255,255,255,0.60)" font-family="Inter, system-ui, -apple-system, Segoe UI, Roboto, Arial" font-size="20">Intent-based chatbot (Dialogflow)</text>
</svg>
