<svg xmlns="http://www.w3.org/2000/svg" width="1280" height="720" viewBox="0 0 1280 720">
  <defs>
    <linearGradient id="bg" x1="0" y1="0" x2="1" y2="1">
      <stop offset="0" stop-color="#0b1220"/>
      <stop offset="1" stop-color="#111827"/>
    </linearGradient>
    <linearGradient id="accent" x1="0" y1="0" x2="1" y2="1">
      <stop offset="0" stop-color="#10b981"/>
      <stop offset="1" stop-color="#3b82f6"/>
    </linearGradient>
  </defs>
  <rect width="1280" height="720" fill="url(#bg)"/>
  <g opacity="0.16" stroke="rgba(255,255,255,0.55)">
    <path d="M220 520c120-210 260-315 420-315s300 105 420 315" fill="none" stroke-width="6"/>
    <path d="M280 520c100-175 220-262 360-262s260 87 360 262" fill="none" stroke-width="5"/>
    <path d="M340 520c80-140 180-210 300-210s220 70 300 210" fill="none" stroke-width="4"/>
  </g>
  <circle cx="640" cy="332" r="132" fill="rgba(255,255,255,0.04)" stroke="rgba(255,255,255,0.10)"/>
  <circle cx="640" cy="332" r="84" fill="url(#accent)" opacity="0.92"/>
  <path d="M640 250l26 54 60 8-44 42 10 60-52-28-52 28 10-60-44-42 60-8 26-54z" fill="rgba(3,7,18,0.55)"/>
  <text x="120" y="592" fill="rgba(255,255,255,0.82)" font-family="Inter, system-ui, -apple-system, Segoe UI, Roboto, Arial" font-size="34" font-weight="700">Sentient Arena 0</text>
  <text x="120" y="630" fill="rgba(255,255,255,0.60)" font-family="Inter, system-ui, -apple-system, Segoe UI, Roboto, Arial" font-size="20">Winner " Team placed #1</text>
</svg>
