<svg xmlns="http://www.w3.org/2000/svg" width="1280" height="720" viewBox="0 0 1280 720">
  <defs>
    <linearGradient id="bg" x1="0" y1="0" x2="1" y2="1">
      <stop offset="0" stop-color="#0b1220"/>
      <stop offset="1" stop-color="#121a2d"/>
    </linearGradient>
    <linearGradient id="accent" x1="0" y1="0" x2="1" y2="1">
      <stop offset="0" stop-color="#ef4444"/>
      <stop offset="1" stop-color="#a855f7"/>
    </linearGradient>
  </defs>
  <rect width="1280" height="720" fill="url(#bg)"/>
  <rect x="92" y="112" width="1096" height="496" rx="28" fill="rgba(255,255,255,0.04)" stroke="rgba(255,255,255,0.10)"/>
  <g transform="translate(180 210)">
    <rect x="0" y="0" width="420" height="70" rx="16" fill="rgba(255,255,255,0.05)"/>
    <rect x="0" y="96" width="780" height="54" rx="14" fill="rgba(255,255,255,0.05)"/>
    <rect x="0" y="164" width="740" height="54" rx="14" fill="rgba(255,255,255,0.05)"/>
    <rect x="0" y="232" width="680" height="54" rx="14" fill="rgba(255,255,255,0.05)"/>
  </g>
  <g transform="translate(880 220)">
    <path d="M140 0l140 60v150c0 92-65 175-140 210C65 385 0 302 0 210V60L140 0z" fill="url(#accent)" opacity="0.95"/>
    <path d="M140 84l76 32v90c0 58-41 111-76 133-35-22-76-75-76-133v-90l76-32z" fill="rgba(3,7,18,0.55)"/>
    <path d="M106 210h68" stroke="rgba(255,255,255,0.88)" stroke-width="10" stroke-linecap="round"/>
    <path d="M140 176v68" stroke="rgba(255,255,255,0.88)" stroke-width="10" stroke-linecap="round"/>
  </g>
  <text x="120" y="592" fill="rgba(255,255,255,0.82)" font-family="Inter, system-ui, -apple-system, Segoe UI, Roboto, Arial" font-size="34" font-weight="700">RedForge</text>
  <text x="120" y="630" fill="rgba(255,255,255,0.60)" font-family="Inter, system-ui, -apple-system, Segoe UI, Roboto, Arial" font-size="20">LLM red-teaming platform " attacker + judge workflows</text>
</svg>
